<svg viewBox="0 0 39 39" xmlns="http://www.w3.org/2000/svg" fill-rule="evenodd" clip-rule="evenodd" stroke-linejoin="round" stroke-miterlimit="2"><path d="M24 26.129C-6.176 57.473 0 90.77 0 191.922c0 84-14.656 168.207 62.047 188.031 23.953 6.16 236.176 6.16 260.098-.031 31.933-8.242 57.917-34.145 61.472-79.313.496-6.304.496-210.961-.015-217.394-3.778-48.11-33.395-75.84-72.418-81.453C302.238.465 300.449.078 254.559 0 91.793.078 56.113-7.168 24 26.129z" fill="url(#_Radial1)" transform="translate(.638 .423) scale(.09801)"/><path d="M19.453 5.346c-5.694 0-11.101-.507-13.166 4.794-.853 2.189-.73 5.032-.73 9.103 0 3.573-.114 6.93.73 9.102 2.06 5.304 7.511 4.796 13.163 4.796 5.453 0 11.075.567 13.165-4.796.855-2.211.73-5.012.73-9.102 0-5.429.3-8.934-2.334-11.565-2.666-2.666-6.272-2.332-11.564-2.332h.006zM18.208 7.85c11.878-.018 13.39-1.339 12.555 17.004-.296 6.488-5.236 5.776-11.308 5.776-11.072 0-11.39-.317-11.39-11.393 0-11.205.878-11.38 10.143-11.39v.003zm8.663 2.307a1.667 1.667 0 100 3.335 1.667 1.667 0 000-3.335zm-7.418 1.95a7.137 7.137 0 000 14.271 7.134 7.134 0 007.134-7.135 7.135 7.135 0 00-7.134-7.137zm0 2.504c6.124 0 6.132 9.265 0 9.265-6.122 0-6.132-9.265 0-9.265z" fill="#fff" fill-rule="nonzero"/><defs><radialGradient id="_Radial1" cx="0" cy="0" r="1" gradientUnits="userSpaceOnUse" gradientTransform="scale(366.905 366.832) rotate(-90 .722 .326)"><stop offset="0" stop-color="#f9e100"/><stop offset=".1" stop-color="#fad10b"/><stop offset=".2" stop-color="#fcaf25"/><stop offset=".3" stop-color="#fe7c4d"/><stop offset=".5" stop-color="#fc1c75"/><stop offset="1" stop-color="#6b1cd1"/></radialGradient></defs></svg>