<svg viewBox="0 0 15 14" xmlns="http://www.w3.org/2000/svg" fill-rule="evenodd" clip-rule="evenodd" stroke-linejoin="round" stroke-miterlimit="2"><path d="M7.494.635c.488 0 .888.412.888.914v3.398c0 .503-.4.914-.888.914a.904.904 0 01-.89-.914V1.549c0-.502.401-.914.89-.914zM.785 5.649a.886.886 0 011.12-.587l3.14 1.05a.922.922 0 01.571 1.152.886.886 0 01-1.12.586L1.357 6.8a.923.923 0 01-.57-1.151zm2.563 8.115a.934.934 0 01-.197-1.277l1.941-2.75a.875.875 0 011.241-.202c.396.296.484.87.197 1.277l-1.941 2.75a.875.875 0 01-1.241.202zm8.292 0a.875.875 0 01-1.241-.203l-1.941-2.749a.933.933 0 01.196-1.276.875.875 0 011.241.202l1.941 2.749a.934.934 0 01-.197 1.277zm2.562-8.115a.923.923 0 01-.57 1.152L10.49 7.85a.886.886 0 01-1.12-.587.923.923 0 01.571-1.152l3.141-1.05a.886.886 0 011.12.587z" fill="#0071ff"/></svg>