<svg viewBox="0 0 13 14" xmlns="http://www.w3.org/2000/svg" fill-rule="evenodd" clip-rule="evenodd" stroke-linejoin="round" stroke-miterlimit="2"><path d="M.029 7.329C.029 3.655 2.923.678 6.493.678c3.572 0 6.465 2.977 6.465 6.651s-2.893 6.651-6.465 6.651a6.34 6.34 0 01-2.018-.33c.46-2.744 2.145-4.983 4.371-5.934.265.315.654.513 1.089.513.793 0 1.435-.662 1.435-1.48 0-.816-.642-1.478-1.435-1.478-.794 0-1.437.66-1.438 1.476-2.841.879-5.143 2.92-6.312 5.542a6.602 6.602 0 01-.988-1.145c.067-2.554 1.295-4.786 3.134-6.101.264.305.647.497 1.075.497.793 0 1.437-.664 1.437-1.48 0-.817-.644-1.479-1.437-1.479-.795 0-1.438.662-1.438 1.48 0 .042.003.086.006.127a7.221 7.221 0 00-3.94 3.399 5.868 5.868 0 01-.005-.258z" fill="#f79320" fill-rule="nonzero"/></svg>