<svg viewBox="0 0 15 14" xmlns="http://www.w3.org/2000/svg" fill-rule="evenodd" clip-rule="evenodd" stroke-linejoin="round" stroke-miterlimit="2"><path d="M10.05 1.18c-1.172.266-2.054 1.347-2.054 2.64 0 .029.006.061.007.09 1.853.408 2.787 1.702 2.787 3.41 0 1.917-1.514 3.472-3.364 3.472-1.85 0-3.578-1.6-3.578-3.972 0-2.897 2.395-5.614 5.808-5.7.061-.001.159.001.259.005A6.592 6.592 0 007.493.668C3.831.668.862 3.646.862 7.32s2.97 6.651 6.631 6.651c3.662 0 6.63-2.977 6.63-6.65a6.653 6.653 0 00-4.073-6.14z" fill="#ed1f24"/></svg>