<svg viewBox="0 0 31 37" xmlns="http://www.w3.org/2000/svg" fill-rule="evenodd" clip-rule="evenodd" stroke-linejoin="round" stroke-miterlimit="2"><path d="M12.874 36.578c.565-.37 1.118-.668 1.6-1.056 4.99-4.017 9.327-8.584 12.105-14.455 1.58-3.338 2.547-6.868 3.18-10.49.299-1.718.465-3.46.647-5.195.165-1.583-1.115-2.794-2.323-3.596-1.134-.754-2.442-1.201-3.78-1.423-1.045-.172-1.873.347-2.316 1.318-.955 2.102-1.767 4.254-2.273 6.513-.312 1.39.296 2.8 1.733 3.264.35.113.683.267 1.02.412.295.127.577.259.818.476.44.4.622.967.583 1.55-.29 4.496-1.857 8.383-5.448 11.28-.575.463-1.14.972-1.919 1.105-1.306.22-2.118-1.044-3.215-1.509-1.071-.453-2.179-.14-2.938.722a61.785 61.785 0 00-2.187 2.66c-.698.886-1.395 1.756-1.998 2.71-.58.917-.586 1.899.127 2.704 1.306 1.475 2.894 2.555 4.85 2.969.553.117 1.147.032 1.734.04.565-.368-.587-.008 0 0zm-.68-34.797C4.826 4.162.167 10.876 1.007 18.602c.144 1.317.438 2.62.71 3.918.115.547.565.966 1.144.804.597-.167.72-.743.602-1.289-.232-1.079-.49-2.156-.65-3.247-.85-5.759 2.224-11.627 7.445-14.22.786-.39 1.623-.678 2.436-1.012.514-.21 1.2-.445 1.125-1.14-.063-.582-.658-.885-1.194-.76-.146.034-.288.083-.431.125-7.368 2.381.143-.042 0 0z" fill="#ed1f27" fill-rule="nonzero"/><path d="M5.185 19.717c.039.089.11.305.223.495.416.688 1.574.45 1.614-.378.012-.246-.051-.503-.12-.744-.459-1.574-.576-3.246-.183-4.846a8.754 8.754 0 012.556-4.336c.758-.692 1.635-1.24 2.556-1.684.403-.193.819-.36 1.226-.545.495-.222.675-.63.502-1.132-.162-.47-.61-.71-1.12-.529-1.677.595-3.216 1.446-4.496 2.691-2.606 2.534-3.612 5.625-3.12 9.215.022.163.03.328.063.488.084.395.18.787.299 1.305.039.089-.12-.518 0 0z" fill="#ed1f27" fill-rule="nonzero"/><path d="M9.752 18.186c.625-.17.857-.612.754-1.2-.071-.41-.154-.823-.172-1.237-.036-.817.162-1.64.666-2.295a3.36 3.36 0 01.862-.777c.417-.265.902-.367 1.324-.612.459-.265.615-.745.402-1.186-.194-.401-.7-.61-1.152-.442-2.819 1.05-4.442 3.14-3.744 6.618.049.244.098.505.219.717.205.366.552.477.841.414.625-.17-.289.063 0 0z" fill="#ed1f27" fill-rule="nonzero"/></svg>