<svg viewBox="0 0 37 37" xmlns="http://www.w3.org/2000/svg" fill-rule="evenodd" clip-rule="evenodd" stroke-linejoin="round" stroke-miterlimit="2"><path d="M35.634 8.827l-.01-.042c-.857-3.461-4.716-7.174-8.26-7.947l-.04-.008a45.885 45.885 0 00-17.274 0l-.041.008c-3.543.773-7.402 4.486-8.259 7.947l-.01.042a33.817 33.817 0 000 14.566l.01.042c.82 3.313 4.392 6.855 7.803 7.83 0 0 .534 2.44.929 5.284.035.25 1.016-.688 2.153-1.614 1.6-1.304 3.505-2.8 3.505-2.8.848.047 1.698.074 2.547.074 2.886 0 5.772-.273 8.638-.82l.04-.008c3.543-.772 7.402-4.486 8.258-7.946l.011-.042a33.817 33.817 0 000-14.566z" fill="#7c39b1" fill-rule="nonzero"/><path d="M22.415 25.284c-.358-.109-.7-.182-1.016-.313-3.283-1.362-6.303-3.119-8.696-5.812-1.36-1.532-2.426-3.26-3.326-5.09-.427-.868-.787-1.77-1.154-2.666-.334-.817.159-1.66.677-2.276.487-.578 1.113-1.02 1.791-1.346.53-.254 1.052-.107 1.439.341.835.97 1.603 1.99 2.224 3.114.383.692.278 1.537-.415 2.008-.168.114-.322.249-.479.378a1.583 1.583 0 00-.36.38c-.173.282-.182.612-.07.917.854 2.348 2.294 4.174 4.657 5.157.378.157.758.34 1.194.29.73-.086.965-.885 1.477-1.304.5-.408 1.138-.414 1.676-.073.539.34 1.06.706 1.58 1.076.508.363 1.015.718 1.485 1.132.452.398.607.92.353 1.459-.466.989-1.143 1.81-2.12 2.336-.276.148-.606.196-.917.292-.358-.109.311-.096 0 0zM17.36 6.65c4.293.121 7.82 2.97 8.575 7.215.128.724.174 1.463.232 2.197.024.309-.15.602-.484.606-.344.004-.5-.284-.521-.593-.045-.61-.075-1.224-.16-1.83-.444-3.198-2.994-5.844-6.178-6.412-.479-.086-.97-.108-1.454-.16-.307-.031-.709-.05-.777-.431-.057-.32.213-.574.518-.59.082-.005.166-.001.249-.001 4.293.12-.083 0 0 0z" fill="#fff" fill-rule="nonzero"/><path d="M23.884 15.11c-.007.053-.01.179-.042.298-.114.43-.767.484-.918.05a1.301 1.301 0 01-.052-.415c0-.91-.199-1.818-.657-2.61a4.856 4.856 0 00-2.036-1.91 5.865 5.865 0 00-1.623-.498c-.245-.04-.492-.065-.738-.1-.298-.04-.457-.23-.443-.524.013-.275.214-.473.514-.456.985.056 1.937.269 2.813.733 1.781.943 2.799 2.432 3.096 4.42.013.09.035.18.042.27.017.223.027.447.044.741-.007.054-.017-.294 0 0z" fill="#fff" fill-rule="nonzero"/><path d="M21.214 15.005c-.36.007-.552-.192-.589-.522-.026-.23-.046-.462-.1-.685-.109-.44-.342-.848-.713-1.118a1.864 1.864 0 00-.58-.28c-.263-.076-.537-.055-.8-.12-.285-.069-.443-.3-.398-.568a.516.516 0 01.544-.415c1.664.12 2.855.98 3.024 2.94.012.139.026.285-.005.417-.052.227-.22.34-.383.351-.36.007.163-.011 0 0z" fill="#fff" fill-rule="nonzero"/></svg>