<svg viewBox="0 0 38 38" xmlns="http://www.w3.org/2000/svg" fill-rule="evenodd" clip-rule="evenodd" stroke-linejoin="round" stroke-miterlimit="2"><g fill="#1bd741" fill-rule="nonzero"><path d="M.012 37.683l2.624-9.323A18.655 18.655 0 01.06 18.88C.06 8.56 8.456.163 18.775.163 29.095.164 37.49 8.56 37.49 18.88c0 10.32-8.396 18.715-18.715 18.715a18.69 18.69 0 01-9.15-2.386L.013 37.683zm10.105-5.88l.573.35a15.511 15.511 0 008.085 2.266c8.569 0 15.54-6.97 15.54-15.54 0-8.569-6.971-15.54-15.54-15.54-8.569 0-15.54 6.971-15.54 15.54 0 2.986.848 5.885 2.454 8.385l.385.6-1.511 5.369 5.554-1.43z"/><path d="M13.518 10.169l-1.214-.067a1.469 1.469 0 00-1.044.357c-.59.512-1.53 1.5-1.82 2.788-.43 1.92.235 4.272 1.96 6.624 1.725 2.352 4.938 6.114 10.621 7.72 1.832.518 3.272.17 4.383-.541a3.92 3.92 0 001.707-2.49l.193-.904a.629.629 0 00-.352-.704L23.85 21.06a.63.63 0 00-.762.188l-1.611 2.088a.461.461 0 01-.519.155c-1.103-.388-4.799-1.936-6.827-5.843a.464.464 0 01.059-.52l1.54-1.78a.628.628 0 00.102-.66l-1.769-4.138a.629.629 0 00-.544-.381z"/></g></svg>